<svg height="26" viewBox="0 0 160 37" width="112" xmlns="http://www.w3.org/2000/svg">
<title>Moqups Logo</title>
<path d="M158.47 10.54a30.18 30.18 0 0 1-2.36-8.73 1.03 1.03 0 0 0-1.2-.9l-4.86.91c-.35.07-.64.32-.76.66-2.3 6.38-6.26 11.84-10.81 15.11 0-.06.21-.53.4-1 .46-1.25.8-2.54 1-3.85.21-1.2.33-2.4.34-3.61a9.32 9.32 0 0 0-1.7-5.89 5.77 5.77 0 0 0-4.69-2.18c-1.85.08-3.64.6-5.24 1.54A14 14 0 0 0 126 4.69c.03-.33.03-.67 0-1a7.3 7.3 0 0 0-.14-1.15l-.02-.08c-.23-1-1.18-1.45-2.13-1.07l-2.72 1.07c-.87.34-1.3 1.3-1.17 2.23.04.3.07.62.08.93a14.8 14.8 0 0 1-.36 3.51l-1.77 8.31c-.13.63-.42 1.2-.85 1.68a8.55 8.55 0 0 1-2.77 2.06c-.48.23-1 .36-1.53.36a1.44 1.44 0 0 1-1-.53c-.48-.5-.64-2.17-.36-3.7l3.2-15.06a1 1 0 0 0-1.17-1.19l-4.32.87a1 1 0 0 0-.78.76L105 16.92a5 5 0 0 1-1.19 2.35 8.55 8.55 0 0 1-2.77 2.06c-.48.22-1 .34-1.53.35a1.39 1.39 0 0 1-1-.52 1.93 1.93 0 0 1-.47-1.34 14.01 14.01 0 0 1 .47-3.31l3.04-14.28a1 1 0 0 0-1.16-1.2l-4.5.85a1 1 0 0 0-.79.77l-3.16 15.01-.22 1.13-.21.45a8.53 8.53 0 0 1-2.74 2.03c-.48.23-1 .36-1.53.36a1.4 1.4 0 0 1-1-.53c-.33-.37-.5-.85-.48-1.34.01-.48.05-.96.12-1.43.07-.65.18-1.29.33-1.92l1.64-7.82a108.09 108.09 0 0 1 1.32-5.16c.14-.45-.03-.94-.44-1.16-.96-.5-2-.82-3.07-.96A29.88 29.88 0 0 0 80.57.9c-2-.04-3.98.34-5.83 1.1-1.57.68-3 1.66-4.2 2.87-.86.97-1.82 1.85-2.87 2.61-1.25.82-2.6 1.5-4 2v-.15a8 8 0 0 0-2.34-6.21A9.29 9.29 0 0 0 54.78.97c-2-.04-3.99.4-5.78 1.3a13.45 13.45 0 0 0-4.44 3.63 17.09 17.09 0 0 0-2.87 5.35 20.42 20.42 0 0 0-1 6.49c0 .52.04 1.04.11 1.55-.35.36-.73.7-1.14 1-.74.6-1.65.95-2.6 1a2 2 0 0 1-1.22-.29 1.38 1.38 0 0 1-.36-1.11c.03-.71.13-1.42.29-2.11l1.54-7.28.25-1.2a17.83 17.83 0 0 0 .39-3.2 4.78 4.78 0 0 0-1.44-3.9c-1-.79-2.24-1.2-3.51-1.14a10 10 0 0 0-3.92.81c-1.47.68-2.8 1.64-3.92 2.82a3.67 3.67 0 0 0-1.41-2.77c-.9-.6-1.98-.9-3.06-.86A10.84 10.84 0 0 0 13 4.57c-.22-.85-.7-1.6-1.37-2.17a6.55 6.55 0 0 0-4.41-1.34c-1.36-.01-2.7.3-3.92.91l-1 .54a1.52 1.52 0 0 0-.69 1L.76 7.46c-.06.3.34.5.56.29.29-.3.29-.29.76-.63a8.5 8.5 0 0 1 1.48-.88c.47-.23 1-.35 1.52-.36a1.41 1.41 0 0 1 1.06.52 2 2 0 0 1 .47 1.35c0 .52-.05 1.03-.13 1.54v.21L3.25 24.8a1 1 0 0 0 .98 1.2H8.4a1 1 0 0 0 .98-.8l2.83-13.3a7.74 7.74 0 0 1 3-4.66c.72-.6 1.61-.95 2.55-1 .41-.04.82.06 1.17.28a1.33 1.33 0 0 1 .36 1.06c0 .81-.1 1.63-.28 2.42l-3.14 14.8a1 1 0 0 0 .97 1.2h3.96a1 1 0 0 0 .98-.8l2.83-13.54a7.36 7.36 0 0 1 2.79-4.36c.74-.6 1.65-.95 2.6-1a2 2 0 0 1 1.22.28 1.37 1.37 0 0 1 .36 1.11c-.03.71-.13 1.42-.29 2.11l-.73 3.5-1.07 5a21.4 21.4 0 0 0-.28 1.7c-.07.5-.1 1-.1 1.5a4.77 4.77 0 0 0 1.43 3.9c.98.79 2.21 1.2 3.47 1.17a10 10 0 0 0 3.92-.81 13.28 13.28 0 0 0 4-2.71c.31.4.65.77 1 1.12a8.77 8.77 0 0 0 6.45 2.22 12.81 12.81 0 0 0 10.79-5.33c1.2-1.65 2.1-3.5 2.63-5.47.2-.76.38-1.53.51-2.3a26 26 0 0 0 3-.92 21 21 0 0 0-.87 6c0 2.86.59 4.93 1.78 6.18a7 7 0 0 0 5.35 1.89 8 8 0 0 0 3.19-.76 10.2 10.2 0 0 0 2.94-1.87 27.07 27.07 0 0 0-.95 3.35l-1.66 7.69a1 1 0 0 0 1.22 1.18l4.3-1.08a1 1 0 0 0 .74-.76l1.66-7.9c.34 0 .69.05 1.06.05 1.36.02 2.7-.29 3.92-.9 1-.52 1.95-1.14 2.82-1.87a4.2 4.2 0 0 0 1.2 1.57 6.56 6.56 0 0 0 4.42 1.34c1.36.02 2.7-.3 3.92-.91a25.9 25.9 0 0 0 3.38-2.41c.25.73.7 1.39 1.28 1.89a6.61 6.61 0 0 0 4.42 1.33c1.36.02 2.7-.29 3.92-.9.65-.34 1.28-.72 1.88-1.15l-2.27 10.66a1 1 0 0 0 1.22 1.18l4.34-1.08a1 1 0 0 0 .74-.76L125 12a7.54 7.54 0 0 1 2.52-4.3c.23-.19.48-.36.74-.51.8-.52 1.73-.82 2.68-.86a2 2 0 0 1 1.76.72c.39.67.57 1.44.51 2.21 0 .8-.07 1.6-.19 2.4a27.16 27.16 0 0 1-1.45 5.65c-.32.83-.73 1.63-1.21 2.38a5.6 5.6 0 0 1-1.5 1.49c-.3.2-.64.36-1 .45h-.09c-.61.13-1.24.16-1.86.08a.54.54 0 0 0-.6.4l-.78 3.69c-.06.28.12.55.4.59a14.3 14.3 0 0 0 4.02-.06c1.4-.22 2.8-.55 4.15-1A32.24 32.24 0 0 0 151.65 9.5c2.92 7.28.93 9.63.5 10.27a4.76 4.76 0 0 1-1.74 1.44c-.82.38-1.72.56-2.62.54-.55-.02-1.07.32-1.18.86l-.56 2.65a.95.95 0 0 0 .82 1.15c.52.05 1.04.07 1.56.07A11.18 11.18 0 0 0 156.9 23c2.68-3.29 3.1-8.66 1.57-12.46Zm-103.3 6.85a10.11 10.11 0 0 1-2 3.19 3.67 3.67 0 0 1-3.95 1.07A3 3 0 0 1 48.2 21c-.6-.72-.9-1.65-.82-2.59.1-2.65.62-5.27 1.56-7.75 1 2.38 4 3.34 7.27 3.41a19.1 19.1 0 0 1-1.04 3.32Zm1.56-6.74c-.54-.02-1.07-.07-1.6-.16-2.26-.42-3.31-1.37-3.62-2.29a1.8 1.8 0 0 1 .79-2.14c.46-.23.97-.35 1.48-.34a3 3 0 0 1 2.22.74c.62.83.9 1.87.77 2.9.02.43 0 .86-.04 1.29Zm22.88 7.44a8.73 8.73 0 0 1-2.32 2.7c-.69.55-1.53.87-2.41.91a2.52 2.52 0 0 1-1.86-.79 4.55 4.55 0 0 1-.89-3c-.02-.83.02-1.66.12-2.48.13-1.01.33-2.02.6-3 .28-1.04.67-2.04 1.16-3a6.42 6.42 0 0 1 3.3-3.16 4.44 4.44 0 0 1 1.76-.4h1.81c.45.03.9.13 1.33.29l-2.6 11.93Z" fill="currentColor"></path></svg>